<mxfile host="app.diagrams.net" modified="2024-02-28T16:06:00.739Z" agent="Mozilla/5.0 (Windows NT 10.0; Win64; x64) AppleWebKit/537.36 (KHTML, like Gecko) Chrome/122.0.0.0 Safari/537.36 Edg/122.0.0.0" etag="nJyJLnpObL3eoO9whcQX" version="23.1.7" type="device">
  <diagram name="PÃ¡gina-1" id="F7vZLPBNzLxnHPz9K1V3">
    <mxGraphModel dx="1155" dy="661" grid="1" gridSize="10" guides="1" tooltips="1" connect="1" arrows="1" fold="1" page="1" pageScale="1" pageWidth="827" pageHeight="1169" math="0" shadow="0">
      <root>
        <mxCell id="0" />
        <mxCell id="1" parent="0" />
        <mxCell id="Q_mYId65WQoA-LtDAVec-12" style="edgeStyle=orthogonalEdgeStyle;rounded=0;orthogonalLoop=1;jettySize=auto;html=1;entryX=0;entryY=0.5;entryDx=0;entryDy=0;endArrow=none;endFill=0;" edge="1" parent="1" source="Q_mYId65WQoA-LtDAVec-1" target="Q_mYId65WQoA-LtDAVec-11">
          <mxGeometry relative="1" as="geometry">
            <Array as="points">
              <mxPoint x="180" y="140" />
            </Array>
          </mxGeometry>
        </mxCell>
        <mxCell id="Q_mYId65WQoA-LtDAVec-53" style="edgeStyle=orthogonalEdgeStyle;rounded=0;orthogonalLoop=1;jettySize=auto;html=1;entryX=0.5;entryY=0;entryDx=0;entryDy=0;endArrow=none;endFill=0;" edge="1" parent="1" source="Q_mYId65WQoA-LtDAVec-1" target="Q_mYId65WQoA-LtDAVec-52">
          <mxGeometry relative="1" as="geometry" />
        </mxCell>
        <mxCell id="Q_mYId65WQoA-LtDAVec-1" value="Clientes" style="rounded=0;whiteSpace=wrap;html=1;" vertex="1" parent="1">
          <mxGeometry x="120" y="200" width="120" height="60" as="geometry" />
        </mxCell>
        <mxCell id="Q_mYId65WQoA-LtDAVec-2" value="Prestamos" style="rounded=0;whiteSpace=wrap;html=1;" vertex="1" parent="1">
          <mxGeometry x="460" y="110" width="120" height="60" as="geometry" />
        </mxCell>
        <mxCell id="Q_mYId65WQoA-LtDAVec-82" style="edgeStyle=orthogonalEdgeStyle;rounded=0;orthogonalLoop=1;jettySize=auto;html=1;entryX=0;entryY=0.5;entryDx=0;entryDy=0;endArrow=none;endFill=0;" edge="1" parent="1" source="Q_mYId65WQoA-LtDAVec-3" target="Q_mYId65WQoA-LtDAVec-42">
          <mxGeometry relative="1" as="geometry">
            <Array as="points">
              <mxPoint x="680" y="250" />
              <mxPoint x="750" y="250" />
              <mxPoint x="750" y="235" />
            </Array>
          </mxGeometry>
        </mxCell>
        <mxCell id="Q_mYId65WQoA-LtDAVec-83" style="edgeStyle=orthogonalEdgeStyle;rounded=0;orthogonalLoop=1;jettySize=auto;html=1;entryX=0;entryY=0.5;entryDx=0;entryDy=0;endArrow=none;endFill=0;" edge="1" parent="1" source="Q_mYId65WQoA-LtDAVec-3" target="Q_mYId65WQoA-LtDAVec-47">
          <mxGeometry relative="1" as="geometry">
            <Array as="points">
              <mxPoint x="680" y="350" />
              <mxPoint x="750" y="350" />
              <mxPoint x="750" y="370" />
            </Array>
          </mxGeometry>
        </mxCell>
        <mxCell id="Q_mYId65WQoA-LtDAVec-84" style="edgeStyle=orthogonalEdgeStyle;rounded=0;orthogonalLoop=1;jettySize=auto;html=1;entryX=0;entryY=0.5;entryDx=0;entryDy=0;endArrow=none;endFill=0;" edge="1" parent="1" source="Q_mYId65WQoA-LtDAVec-3" target="Q_mYId65WQoA-LtDAVec-31">
          <mxGeometry relative="1" as="geometry" />
        </mxCell>
        <mxCell id="Q_mYId65WQoA-LtDAVec-3" value="Detalles_prestamos" style="rounded=0;whiteSpace=wrap;html=1;" vertex="1" parent="1">
          <mxGeometry x="630" y="270" width="120" height="60" as="geometry" />
        </mxCell>
        <mxCell id="Q_mYId65WQoA-LtDAVec-4" value="Genero_libros" style="rounded=0;whiteSpace=wrap;html=1;" vertex="1" parent="1">
          <mxGeometry x="120" y="340" width="120" height="60" as="geometry" />
        </mxCell>
        <mxCell id="Q_mYId65WQoA-LtDAVec-21" style="edgeStyle=orthogonalEdgeStyle;rounded=0;orthogonalLoop=1;jettySize=auto;html=1;endArrow=none;endFill=0;" edge="1" parent="1" source="Q_mYId65WQoA-LtDAVec-5" target="Q_mYId65WQoA-LtDAVec-19">
          <mxGeometry relative="1" as="geometry" />
        </mxCell>
        <mxCell id="Q_mYId65WQoA-LtDAVec-5" value="Libros" style="rounded=0;whiteSpace=wrap;html=1;" vertex="1" parent="1">
          <mxGeometry x="460" y="340" width="120" height="60" as="geometry" />
        </mxCell>
        <mxCell id="Q_mYId65WQoA-LtDAVec-13" style="edgeStyle=orthogonalEdgeStyle;rounded=0;orthogonalLoop=1;jettySize=auto;html=1;entryX=0;entryY=0.5;entryDx=0;entryDy=0;endArrow=none;endFill=0;" edge="1" parent="1" source="Q_mYId65WQoA-LtDAVec-11" target="Q_mYId65WQoA-LtDAVec-2">
          <mxGeometry relative="1" as="geometry" />
        </mxCell>
        <mxCell id="Q_mYId65WQoA-LtDAVec-11" value="Realiza" style="rhombus;whiteSpace=wrap;html=1;" vertex="1" parent="1">
          <mxGeometry x="260" y="100" width="80" height="80" as="geometry" />
        </mxCell>
        <mxCell id="Q_mYId65WQoA-LtDAVec-20" style="edgeStyle=orthogonalEdgeStyle;rounded=0;orthogonalLoop=1;jettySize=auto;html=1;entryX=0.5;entryY=0;entryDx=0;entryDy=0;endArrow=none;endFill=0;" edge="1" parent="1" source="Q_mYId65WQoA-LtDAVec-16" target="Q_mYId65WQoA-LtDAVec-5">
          <mxGeometry relative="1" as="geometry" />
        </mxCell>
        <mxCell id="Q_mYId65WQoA-LtDAVec-35" style="edgeStyle=orthogonalEdgeStyle;rounded=0;orthogonalLoop=1;jettySize=auto;html=1;endArrow=none;endFill=0;" edge="1" parent="1" source="Q_mYId65WQoA-LtDAVec-16">
          <mxGeometry relative="1" as="geometry">
            <mxPoint x="460" y="250.0000000000001" as="targetPoint" />
          </mxGeometry>
        </mxCell>
        <mxCell id="Q_mYId65WQoA-LtDAVec-79" style="edgeStyle=orthogonalEdgeStyle;rounded=0;orthogonalLoop=1;jettySize=auto;html=1;endArrow=none;endFill=0;" edge="1" parent="1" source="Q_mYId65WQoA-LtDAVec-16" target="Q_mYId65WQoA-LtDAVec-2">
          <mxGeometry relative="1" as="geometry" />
        </mxCell>
        <mxCell id="Q_mYId65WQoA-LtDAVec-80" style="edgeStyle=orthogonalEdgeStyle;rounded=0;orthogonalLoop=1;jettySize=auto;html=1;endArrow=none;endFill=0;" edge="1" parent="1" source="Q_mYId65WQoA-LtDAVec-16" target="Q_mYId65WQoA-LtDAVec-3">
          <mxGeometry relative="1" as="geometry" />
        </mxCell>
        <mxCell id="Q_mYId65WQoA-LtDAVec-16" value="Incluye" style="rhombus;whiteSpace=wrap;html=1;" vertex="1" parent="1">
          <mxGeometry x="480" y="210" width="80" height="80" as="geometry" />
        </mxCell>
        <mxCell id="Q_mYId65WQoA-LtDAVec-22" style="edgeStyle=orthogonalEdgeStyle;rounded=0;orthogonalLoop=1;jettySize=auto;html=1;endArrow=none;endFill=0;" edge="1" parent="1" source="Q_mYId65WQoA-LtDAVec-19" target="Q_mYId65WQoA-LtDAVec-4">
          <mxGeometry relative="1" as="geometry">
            <Array as="points">
              <mxPoint x="280" y="370" />
              <mxPoint x="280" y="370" />
            </Array>
          </mxGeometry>
        </mxCell>
        <mxCell id="Q_mYId65WQoA-LtDAVec-19" value="Pertenece" style="rhombus;whiteSpace=wrap;html=1;" vertex="1" parent="1">
          <mxGeometry x="310" y="330" width="80" height="80" as="geometry" />
        </mxCell>
        <mxCell id="Q_mYId65WQoA-LtDAVec-26" value="id_cliente" style="ellipse;whiteSpace=wrap;html=1;" vertex="1" parent="1">
          <mxGeometry x="70" y="130" width="90" height="50" as="geometry" />
        </mxCell>
        <mxCell id="Q_mYId65WQoA-LtDAVec-58" style="edgeStyle=orthogonalEdgeStyle;rounded=0;orthogonalLoop=1;jettySize=auto;html=1;endArrow=none;endFill=0;" edge="1" parent="1" source="Q_mYId65WQoA-LtDAVec-27" target="Q_mYId65WQoA-LtDAVec-4">
          <mxGeometry relative="1" as="geometry" />
        </mxCell>
        <mxCell id="Q_mYId65WQoA-LtDAVec-27" value="id_genero" style="ellipse;whiteSpace=wrap;html=1;" vertex="1" parent="1">
          <mxGeometry x="10" y="345" width="90" height="50" as="geometry" />
        </mxCell>
        <mxCell id="Q_mYId65WQoA-LtDAVec-89" style="edgeStyle=orthogonalEdgeStyle;rounded=0;orthogonalLoop=1;jettySize=auto;html=1;entryX=0;entryY=0.75;entryDx=0;entryDy=0;endArrow=none;endFill=0;" edge="1" parent="1" source="Q_mYId65WQoA-LtDAVec-29" target="Q_mYId65WQoA-LtDAVec-5">
          <mxGeometry relative="1" as="geometry">
            <Array as="points">
              <mxPoint x="414" y="390" />
              <mxPoint x="440" y="390" />
              <mxPoint x="440" y="385" />
            </Array>
          </mxGeometry>
        </mxCell>
        <mxCell id="Q_mYId65WQoA-LtDAVec-29" value="id_libro" style="ellipse;whiteSpace=wrap;html=1;" vertex="1" parent="1">
          <mxGeometry x="369" y="410" width="90" height="50" as="geometry" />
        </mxCell>
        <mxCell id="Q_mYId65WQoA-LtDAVec-69" style="edgeStyle=orthogonalEdgeStyle;rounded=0;orthogonalLoop=1;jettySize=auto;html=1;entryX=0;entryY=0.25;entryDx=0;entryDy=0;endArrow=none;endFill=0;" edge="1" parent="1" source="Q_mYId65WQoA-LtDAVec-30" target="Q_mYId65WQoA-LtDAVec-2">
          <mxGeometry relative="1" as="geometry">
            <Array as="points">
              <mxPoint x="440" y="125" />
            </Array>
          </mxGeometry>
        </mxCell>
        <mxCell id="Q_mYId65WQoA-LtDAVec-30" value="id_prestamo" style="ellipse;whiteSpace=wrap;html=1;" vertex="1" parent="1">
          <mxGeometry x="350" y="50" width="90" height="50" as="geometry" />
        </mxCell>
        <mxCell id="Q_mYId65WQoA-LtDAVec-31" value="id_detalle" style="ellipse;whiteSpace=wrap;html=1;" vertex="1" parent="1">
          <mxGeometry x="770" y="275" width="90" height="50" as="geometry" />
        </mxCell>
        <mxCell id="Q_mYId65WQoA-LtDAVec-57" style="edgeStyle=orthogonalEdgeStyle;rounded=0;orthogonalLoop=1;jettySize=auto;html=1;entryX=0;entryY=0.5;entryDx=0;entryDy=0;endArrow=none;endFill=0;" edge="1" parent="1" source="Q_mYId65WQoA-LtDAVec-32" target="Q_mYId65WQoA-LtDAVec-1">
          <mxGeometry relative="1" as="geometry">
            <Array as="points">
              <mxPoint x="110" y="230" />
              <mxPoint x="110" y="230" />
            </Array>
          </mxGeometry>
        </mxCell>
        <mxCell id="Q_mYId65WQoA-LtDAVec-32" value="nombre_cliente" style="ellipse;whiteSpace=wrap;html=1;" vertex="1" parent="1">
          <mxGeometry x="10" y="190" width="90" height="50" as="geometry" />
        </mxCell>
        <mxCell id="Q_mYId65WQoA-LtDAVec-59" style="edgeStyle=orthogonalEdgeStyle;rounded=0;orthogonalLoop=1;jettySize=auto;html=1;entryX=0.5;entryY=1;entryDx=0;entryDy=0;endArrow=none;endFill=0;" edge="1" parent="1" source="Q_mYId65WQoA-LtDAVec-33" target="Q_mYId65WQoA-LtDAVec-4">
          <mxGeometry relative="1" as="geometry">
            <Array as="points">
              <mxPoint x="170" y="440" />
              <mxPoint x="170" y="420" />
              <mxPoint x="180" y="420" />
            </Array>
          </mxGeometry>
        </mxCell>
        <mxCell id="Q_mYId65WQoA-LtDAVec-33" value="nombre_genero_libro" style="ellipse;whiteSpace=wrap;html=1;" vertex="1" parent="1">
          <mxGeometry x="20" y="410" width="130" height="70" as="geometry" />
        </mxCell>
        <mxCell id="Q_mYId65WQoA-LtDAVec-34" value="Cantidad" style="ellipse;whiteSpace=wrap;html=1;" vertex="1" parent="1">
          <mxGeometry x="369" y="222.5" width="90" height="55" as="geometry" />
        </mxCell>
        <mxCell id="Q_mYId65WQoA-LtDAVec-41" value="titulo_libro" style="ellipse;whiteSpace=wrap;html=1;" vertex="1" parent="1">
          <mxGeometry x="420" y="470" width="90" height="50" as="geometry" />
        </mxCell>
        <mxCell id="Q_mYId65WQoA-LtDAVec-42" value="id_prestamo" style="ellipse;whiteSpace=wrap;html=1;" vertex="1" parent="1">
          <mxGeometry x="770" y="210" width="90" height="50" as="geometry" />
        </mxCell>
        <mxCell id="Q_mYId65WQoA-LtDAVec-70" style="edgeStyle=orthogonalEdgeStyle;rounded=0;orthogonalLoop=1;jettySize=auto;html=1;entryX=0.25;entryY=0;entryDx=0;entryDy=0;endArrow=none;endFill=0;" edge="1" parent="1" source="Q_mYId65WQoA-LtDAVec-43" target="Q_mYId65WQoA-LtDAVec-2">
          <mxGeometry relative="1" as="geometry">
            <Array as="points">
              <mxPoint x="475" y="100" />
              <mxPoint x="490" y="100" />
            </Array>
          </mxGeometry>
        </mxCell>
        <mxCell id="Q_mYId65WQoA-LtDAVec-43" value="id_cliente" style="ellipse;whiteSpace=wrap;html=1;" vertex="1" parent="1">
          <mxGeometry x="430" y="10" width="90" height="50" as="geometry" />
        </mxCell>
        <mxCell id="Q_mYId65WQoA-LtDAVec-44" value="fecha_inicio" style="ellipse;whiteSpace=wrap;html=1;" vertex="1" parent="1">
          <mxGeometry x="530" y="10" width="90" height="50" as="geometry" />
        </mxCell>
        <mxCell id="Q_mYId65WQoA-LtDAVec-73" style="edgeStyle=orthogonalEdgeStyle;rounded=0;orthogonalLoop=1;jettySize=auto;html=1;entryX=1;entryY=0.25;entryDx=0;entryDy=0;endArrow=none;endFill=0;" edge="1" parent="1" source="Q_mYId65WQoA-LtDAVec-45" target="Q_mYId65WQoA-LtDAVec-2">
          <mxGeometry relative="1" as="geometry">
            <Array as="points">
              <mxPoint x="590" y="125" />
            </Array>
          </mxGeometry>
        </mxCell>
        <mxCell id="Q_mYId65WQoA-LtDAVec-45" value="fecha_devolucion" style="ellipse;whiteSpace=wrap;html=1;" vertex="1" parent="1">
          <mxGeometry x="590" y="60" width="110" height="60" as="geometry" />
        </mxCell>
        <mxCell id="Q_mYId65WQoA-LtDAVec-71" style="edgeStyle=orthogonalEdgeStyle;rounded=0;orthogonalLoop=1;jettySize=auto;html=1;entryX=0.5;entryY=0;entryDx=0;entryDy=0;endArrow=none;endFill=0;" edge="1" parent="1" source="Q_mYId65WQoA-LtDAVec-46" target="Q_mYId65WQoA-LtDAVec-2">
          <mxGeometry relative="1" as="geometry">
            <Array as="points">
              <mxPoint x="525" y="100" />
              <mxPoint x="520" y="100" />
            </Array>
          </mxGeometry>
        </mxCell>
        <mxCell id="Q_mYId65WQoA-LtDAVec-46" value="estado" style="ellipse;whiteSpace=wrap;html=1;" vertex="1" parent="1">
          <mxGeometry x="490" y="58.5" width="70" height="35" as="geometry" />
        </mxCell>
        <mxCell id="Q_mYId65WQoA-LtDAVec-47" value="id_libro" style="ellipse;whiteSpace=wrap;html=1;" vertex="1" parent="1">
          <mxGeometry x="770" y="345" width="90" height="50" as="geometry" />
        </mxCell>
        <mxCell id="Q_mYId65WQoA-LtDAVec-91" style="edgeStyle=orthogonalEdgeStyle;rounded=0;orthogonalLoop=1;jettySize=auto;html=1;entryX=0.5;entryY=1;entryDx=0;entryDy=0;endArrow=none;endFill=0;" edge="1" parent="1" source="Q_mYId65WQoA-LtDAVec-48" target="Q_mYId65WQoA-LtDAVec-5">
          <mxGeometry relative="1" as="geometry">
            <Array as="points">
              <mxPoint x="520" y="420" />
              <mxPoint x="520" y="420" />
            </Array>
          </mxGeometry>
        </mxCell>
        <mxCell id="Q_mYId65WQoA-LtDAVec-48" value="anio_publicacion" style="ellipse;whiteSpace=wrap;html=1;" vertex="1" parent="1">
          <mxGeometry x="470" y="410" width="100" height="60" as="geometry" />
        </mxCell>
        <mxCell id="Q_mYId65WQoA-LtDAVec-92" style="edgeStyle=orthogonalEdgeStyle;rounded=0;orthogonalLoop=1;jettySize=auto;html=1;entryX=1;entryY=0.5;entryDx=0;entryDy=0;endArrow=none;endFill=0;" edge="1" parent="1" source="Q_mYId65WQoA-LtDAVec-49" target="Q_mYId65WQoA-LtDAVec-5">
          <mxGeometry relative="1" as="geometry">
            <Array as="points">
              <mxPoint x="635" y="395" />
              <mxPoint x="600" y="395" />
              <mxPoint x="600" y="370" />
            </Array>
          </mxGeometry>
        </mxCell>
        <mxCell id="Q_mYId65WQoA-LtDAVec-49" value="id_genero_libro" style="ellipse;whiteSpace=wrap;html=1;" vertex="1" parent="1">
          <mxGeometry x="590" y="415" width="90" height="50" as="geometry" />
        </mxCell>
        <mxCell id="Q_mYId65WQoA-LtDAVec-88" style="edgeStyle=orthogonalEdgeStyle;rounded=0;orthogonalLoop=1;jettySize=auto;html=1;entryX=1;entryY=1;entryDx=0;entryDy=0;endArrow=none;endFill=0;" edge="1" parent="1" source="Q_mYId65WQoA-LtDAVec-50" target="Q_mYId65WQoA-LtDAVec-5">
          <mxGeometry relative="1" as="geometry" />
        </mxCell>
        <mxCell id="Q_mYId65WQoA-LtDAVec-50" value="estado" style="ellipse;whiteSpace=wrap;html=1;" vertex="1" parent="1">
          <mxGeometry x="540" y="470" width="80" height="40" as="geometry" />
        </mxCell>
        <mxCell id="Q_mYId65WQoA-LtDAVec-55" style="edgeStyle=orthogonalEdgeStyle;rounded=0;orthogonalLoop=1;jettySize=auto;html=1;entryX=0.25;entryY=1;entryDx=0;entryDy=0;endArrow=none;endFill=0;" edge="1" parent="1" source="Q_mYId65WQoA-LtDAVec-51" target="Q_mYId65WQoA-LtDAVec-1">
          <mxGeometry relative="1" as="geometry">
            <Array as="points">
              <mxPoint x="130" y="275" />
              <mxPoint x="130" y="270" />
              <mxPoint x="150" y="270" />
            </Array>
          </mxGeometry>
        </mxCell>
        <mxCell id="Q_mYId65WQoA-LtDAVec-51" value="email_cuenta" style="ellipse;whiteSpace=wrap;html=1;" vertex="1" parent="1">
          <mxGeometry x="20" y="250" width="90" height="50" as="geometry" />
        </mxCell>
        <mxCell id="Q_mYId65WQoA-LtDAVec-52" value="telefono" style="ellipse;whiteSpace=wrap;html=1;" vertex="1" parent="1">
          <mxGeometry x="120" y="277.5" width="80" height="40" as="geometry" />
        </mxCell>
        <mxCell id="Q_mYId65WQoA-LtDAVec-56" style="edgeStyle=orthogonalEdgeStyle;rounded=0;orthogonalLoop=1;jettySize=auto;html=1;entryX=0.319;entryY=0.025;entryDx=0;entryDy=0;entryPerimeter=0;endArrow=none;endFill=0;" edge="1" parent="1" source="Q_mYId65WQoA-LtDAVec-26" target="Q_mYId65WQoA-LtDAVec-1">
          <mxGeometry relative="1" as="geometry">
            <Array as="points">
              <mxPoint x="115" y="190" />
              <mxPoint x="158" y="190" />
            </Array>
          </mxGeometry>
        </mxCell>
        <mxCell id="Q_mYId65WQoA-LtDAVec-72" style="edgeStyle=orthogonalEdgeStyle;rounded=0;orthogonalLoop=1;jettySize=auto;html=1;entryX=0.868;entryY=0.039;entryDx=0;entryDy=0;entryPerimeter=0;endArrow=none;endFill=0;" edge="1" parent="1" source="Q_mYId65WQoA-LtDAVec-44" target="Q_mYId65WQoA-LtDAVec-2">
          <mxGeometry relative="1" as="geometry" />
        </mxCell>
        <mxCell id="Q_mYId65WQoA-LtDAVec-74" value="1 : N" style="text;html=1;align=center;verticalAlign=middle;whiteSpace=wrap;rounded=0;" vertex="1" parent="1">
          <mxGeometry x="340" y="110" width="60" height="30" as="geometry" />
        </mxCell>
        <mxCell id="Q_mYId65WQoA-LtDAVec-75" value="1 :N" style="text;html=1;align=center;verticalAlign=middle;whiteSpace=wrap;rounded=0;" vertex="1" parent="1">
          <mxGeometry x="384" y="340" width="60" height="30" as="geometry" />
        </mxCell>
        <mxCell id="Q_mYId65WQoA-LtDAVec-77" value="1 : N" style="text;html=1;align=center;verticalAlign=middle;whiteSpace=wrap;rounded=0;" vertex="1" parent="1">
          <mxGeometry x="465" y="310" width="60" height="30" as="geometry" />
        </mxCell>
        <mxCell id="Q_mYId65WQoA-LtDAVec-81" value="1 : N" style="text;html=1;align=center;verticalAlign=middle;resizable=0;points=[];autosize=1;strokeColor=none;fillColor=none;" vertex="1" parent="1">
          <mxGeometry x="560" y="222.5" width="50" height="30" as="geometry" />
        </mxCell>
        <mxCell id="Q_mYId65WQoA-LtDAVec-90" style="edgeStyle=orthogonalEdgeStyle;rounded=0;orthogonalLoop=1;jettySize=auto;html=1;entryX=0.049;entryY=0.997;entryDx=0;entryDy=0;entryPerimeter=0;endArrow=none;endFill=0;" edge="1" parent="1" source="Q_mYId65WQoA-LtDAVec-41" target="Q_mYId65WQoA-LtDAVec-5">
          <mxGeometry relative="1" as="geometry" />
        </mxCell>
      </root>
    </mxGraphModel>
  </diagram>
</mxfile>
